<svg xmlns="http://www.w3.org/2000/svg" viewBox="0 0 512 512">
  <defs>
    <symbol id="a" viewBox="0 0 1080 1080">
      <path d="M795.3 610a259.9 259.9 0 00-169.8-294l-8.2-57H462.7l-8.2 57c-3.2 1-6.3 2.2-9.4 3.4A260 260 0 00284.7 610l-45.2 35.6 77.3 133.8 53.4-21.3a260.2 260.2 0 00339.6 0l53.4 21.4 77.3-133.9-45.2-35.6zm-45.5 130.5l-46.6-18.7-7.2 6.8a228.9 228.9 0 01-312 0l-7.2-6.7-46.5 18.6-50.4-87.2 39.5-31-2.3-9.6a228.8 228.8 0 01139.3-264.4c5.5-2.1 11.1-4 16.7-5.8l9.4-2.9 7.2-49.6h100.6l7.2 49.7 9.4 2.8a228.8 228.8 0 01156 270.2l-2.2 9.6 39.4 31-50.3 87.2z" />
      <path d="M406.5 560.3c0-68.3 51.6-124.8 118-132.5v35.8H501l39 67.4 39-67.5h-23.4v-67a163.1 163.1 0 00-31.1 0 164.8 164.8 0 00-149 163.8 164 164 0 008 50.8l27.6-16a133 133 0 01-4.6-34.8z" />
      <path d="M540 693.8a133.3 133.3 0 01-106.7-53.4l30.2-17.4 11.7 20.3 39-67.5h-78l11.7 20.3-30.3 17.4-27 15.7a164.5 164.5 0 00271 42l-27.8-16a133.1 133.1 0 01-93.8 38.6z" />
      <path d="M574.8 399.5v32a133.7 133.7 0 0198.7 128.8 132.6 132.6 0 01-11.1 53.3L632 596l11.7-20.3h-78l39 67.5 11.7-20.3 30.2 17.4 27 15.7a164 164 0 0030.9-95.8c0-78.8-55.7-144.9-129.9-160.8l.2.1z" />
    </symbol>
  </defs>
  <g class="layer">
    <use fill="white" x="-65" y="62" transform="translate(-79.2 -301.9) scale(1.75425)" href="#a" />
  </g>
</svg>