<svg xmlns="http://www.w3.org/2000/svg" viewBox="0 0 512 512">
  <defs>
    <symbol id="a" viewBox="0 0 1080 1080">
      <path d="M795 610a260 260 0 00-170-294l-8-57H463l-9 57-9 3a260 260 0 00-160 291l-46 36 78 133 53-21a260 260 0 00340 0l53 22 77-134-45-36zm-45 131l-47-19-7 7a229 229 0 01-312 0l-7-7-47 18-50-87 39-31-2-9a229 229 0 01139-265l17-6 9-2 8-50h100l7 50 10 2a229 229 0 01156 271l-2 9 39 31-50 87z"/>
      <path d="M407 560c0-68 51-125 118-132v36h-24l39 67 39-67h-23v-67a163 163 0 00-31 0 165 165 0 00-149 163 164 164 0 008 51l27-16a133 133 0 01-4-35z"/>
      <path d="M540 694a133 133 0 01-107-54l31-17 11 20 39-67h-78l12 20-30 17-27 16a165 165 0 00271 42l-28-16a133 133 0 01-94 39z"/>
      <path d="M575 400v32a134 134 0 0198 128 133 133 0 01-11 54l-30-18 12-20h-78l39 67 11-20 31 17 27 16a164 164 0 0031-96c0-79-56-145-130-161v1z"/>
    </symbol>
  </defs>
  <use x="-65" y="62" fill="#fff" href="#a" transform="translate(-79 -302) scale(1.75425)"/>
</svg>
