<svg fill="white" xmlns="http://www.w3.org/2000/svg" viewBox="224 224 632 632"><path d="M795.25 609.91a259.88 259.88 0 00-169.77-294l-8.22-57H462.74l-8.22 57c-3.18 1.11-6.34 2.29-9.46 3.51a259.93 259.93 0 00-160.32 290.5l-45.23 35.59 77.27 133.83L370.2 758a260.16 260.16 0 00339.62 0l53.4 21.36 77.27-133.83zm-45.49 130.54l-46.52-18.61-7.24 6.73a228.86 228.86 0 01-312 0l-7.22-6.72-46.52 18.61-50.32-87.16 39.43-31-2.24-9.62a228.75 228.75 0 01139.3-264.34c5.46-2.15 11.07-4.11 16.68-5.83l9.42-2.9 7.15-49.61h100.64l7.15 49.66 9.43 2.89a228.75 228.75 0 01156 270.11l-2.23 9.63 39.43 31z"/><path d="M406.53 560.33c0-68.32 51.62-124.83 117.92-132.56v35.78h-23.4L540 531l39-67.48h-23.44v-67.03c-5.11-.49-10.31-.74-15.56-.74s-10.44.25-15.55.74c-83.48 7.86-149 78.34-149 163.84a164 164 0 008 50.78l27.69-16a133 133 0 01-4.61-34.78z"/><path d="M540 693.81a133.35 133.35 0 01-106.7-53.37L463.48 623l11.71 20.28 39-67.48h-77.95l11.68 20.27-30.28 17.48-27.09 15.62v.05a164.46 164.46 0 00271 42l-27.75-16a133.12 133.12 0 01-93.8 38.59z"/><path d="M574.75 399.46v32c56.82 15.33 98.73 67.3 98.73 128.87a132.64 132.64 0 01-11.09 53.24l-30.31-17.48 11.71-20.27h-77.92l39 67.48 11.66-20.3 30.17 17.42 27.09 15.64a164 164 0 0030.79-95.75c0-78.81-55.7-144.87-129.83-160.85z"/></svg>