<svg version="1" xmlns="http://www.w3.org/2000/svg" width="2966.667" height="2966.667" viewBox="0 0 2225.000000 2225.000000"><path d="M791 72.8c0 .8-4.3 26.4-5.5 32.7-.6 3.4-2.2 12.3-3 17.5-.8 5.2-1.7 10.3-2.2 12.5-.2 1.1-.6 3.1-.8 4.5-.2 1.4-1.1 6.5-2 11.5-.9 4.9-2.5 14.1-3.5 20.2-1.1 6.2-2.9 16.6-4.1 23-1.1 6.5-2.3 13.1-2.5 14.8-.3 1.6-.9 5.2-1.4 8-.5 2.7-1.2 6.3-1.5 8-.2 1.6-.9 5.5-1.5 8.5s-1.3 6.8-1.6 8.5c-1.8 10.6-.8 9.5-14.4 15.2-30.2 12.6-42.3 18-66.5 29.9-21.3 10.4-51.5 26.6-61.3 32.8-2.3 1.4-4.3 2.6-4.6 2.6-.2 0-3.3 1.8-6.7 3.9-3.5 2.2-9.5 5.9-13.4 8.2-23.5 14.3-62.6 41.8-90 63.4-7.7 6-14.6 11.4-15.3 12-.7.5-2.1 1.7-3 2.6-.9.8-6.4 5.5-12.2 10.4-5.8 4.9-11.2 9.6-12.1 10.4-.9.9-5.1 4.7-9.5 8.6-9.7 8.6-29.4 27.7-44.1 42.7-11.9 12.2-13.1 13.4-24.3 25.9-4.1 4.5-8 8.7-8.5 9.3-.6.6-5.8 6.7-11.5 13.6-5.8 6.9-10.7 12.7-11 13-.3.3-5.3 6.6-11.2 14-42.2 53.9-79.9 113.6-109.1 172.5-4.9 9.9-14.7 30.6-14.7 31 0 .2-1.6 3.9-3.6 8.2-4.7 10-12.2 28.3-18.5 44.8-2.7 7.1-5.5 14.1-6 15.5-2 4.7-15.8 46.6-19.5 59.1-6 20.8-14.7 54.5-17 66.4-.2 1.1-.6 2.9-.8 4-2.1 9.3-6.3 31.6-9.1 49-1.9 11.5-4.4 25.5-5.5 31-1.1 5.5-2.2 12.5-2.5 15.5-.3 3-.8 6.8-1 8.5-.4 2.9-.6 5.6-2.1 22.5-.3 4.1-.7 9.1-.9 11-1.2 11.6-1.9 38.9-1.9 68.5 0 46 1.2 70.2 4.9 103 .2 1.6.6 6.1 1 10 .4 3.8.9 8.1 1.1 9.5.2 1.4.6 5 .9 8 .4 3 .8 6.5 1 7.7.3 1.7-2.1 4.5-10.8 12.7-6.2 5.7-12.3 11.4-13.7 12.6-1.4 1.2-5.4 4.9-9 8.3-3.6 3.4-11.9 11.2-18.5 17.2-12.3 11.3-20.8 19.1-25.5 23.5-3.2 3-22.3 20.7-26.5 24.6-4.3 3.9-28.3 26.4-31.7 29.7l-2.9 2.7 4.2 7.8c6.3 11.7 18.4 32.9 48.9 85.7 15.3 26.4 28.8 49.8 30 52 1.2 2.2 2.6 4.4 3 5 .4.5 1.8 3 3.2 5.5 2.8 5 20.7 36.1 45.3 78.5 18.1 31.2 43.1 74.5 45.4 78.8.9 1.6 2.1 3.6 2.6 4.5 1.6 2.7 17.1 29.3 19.3 33.2 2.2 3.9 15.3 26.5 44 76 10.7 18.4 20.8 36 22.5 39 1.7 3 4.7 8.2 6.7 11.5 2 3.3 3.9 6.7 4.3 7.5.4.8 1.5 2.8 2.5 4.5 1.1 1.6 7.4 12.4 14.1 24 18.6 31.8 26.2 44.4 27 44.9.9.6 1.8.3 33.6-11.4 13.8-5 34.9-12.7 47-17.2 12.1-4.4 26.3-9.6 31.5-11.5 9.7-3.6 19.7-7.2 44.9-16.2 16.5-5.9 13.8-6.3 26.9 4.2 15.9 12.9 66.7 48.3 86.7 60.6 1.7 1 5.6 3.5 8.7 5.4 19.6 12.3 68.5 38 96.8 51 14.1 6.4 24.4 10.9 34.5 15.2 6.1 2.5 11.9 5 13 5.5 5.2 2.4 38.4 14.6 50.5 18.7 18 6 41.5 13.2 51 15.7 1.4.4 10.2 2.7 19.5 5.2 23.2 6.1 66.1 15.2 84 17.9 2.2.3 6.9 1 10.5 1.6 3.6.6 8 1.2 9.9 1.5 1.9.2 4.6.6 6 .9 1.4.2 4.6.6 7.1 1 2.5.3 6.1.8 8 1 1.9.3 5.8.7 8.5 1 2.8.2 7 .7 9.5 1 2.5.2 7 .7 10 .9 3 .3 8.2.7 11.5 1.1 24.1 2.3 43.2 3 81.5 2.9 20.6 0 43.4-.3 50.5-.7 19.5-1.2 24-1.5 43.5-3.3 8.4-.7 33.4-3.7 41-4.9 1.4-.2 4.5-.7 7-1 5.5-.7 8.8-1.3 16-2.5 9.5-1.6 11.4-2 13.6-2.4 1.2-.2 3.7-.7 5.5-1 1.9-.3 7.9-1.5 13.4-2.6s11.4-2.3 13-2.6c1.7-.3 4.6-.9 6.5-1.4 1.9-.5 5-1.2 6.9-1.5 1.9-.3 3.7-.8 4.1-1 .4-.2 2-.6 3.7-.9 8.9-1.6 48.7-12.5 71.8-19.6 15-4.7 45.9-15.7 65-23.2 2.8-1.1 8.2-3 12-4.3 26.1-8.7 98.4-45 136.9-68.7 2.8-1.8 6.1-3.8 7.2-4.5 1-.7 5-3.1 8.7-5.5 3.7-2.4 7.6-4.8 8.5-5.3 1-.6 8.3-5.5 16.2-10.9 13.7-9.4 20.9-14.5 44.5-31.9 5.5-4 10.5-7.6 11.1-8 .6-.3 3.9.3 7.5 1.4 3.5 1.1 12.1 3.8 19.2 6 7 2.1 18.7 5.8 26 8 7.2 2.3 16.6 5.2 20.7 6.5 11.3 3.4 22.5 6.9 33 10.2 70.7 22.3 74.3 23.3 75.6 21.9 1.7-1.8 29.4-49.5 29.4-50.6 0-.5.4-1.1.8-1.3.4-.2 1.9-2.3 3.3-4.8 3.2-5.7-1.5 2.5 54.1-93.5 26.1-45.1 48.6-83.9 49.9-86.2 1.3-2.3 7.1-12.4 12.9-22.4 5.8-10 11.6-20 12.9-22.3 1.3-2.2 9-15.6 17.1-29.6 8.1-14 19-32.9 24.2-42 5.2-9.1 14.6-25.3 20.8-36 6.2-10.7 12.4-21.5 13.8-24 1.4-2.5 8.9-15.5 16.7-29 14.7-25.3 30.8-53.4 33.5-58.2.8-1.6 7.6-13.5 15.1-26.5 19.6-34.2 18-31 16.5-32.5-.7-.7-3.7-3.3-6.6-5.8-2.9-2.5-5.8-5-6.4-5.5-1.3-1.2-36.6-30.8-56-46.8-7.2-6-14.2-11.8-15.6-13-1.4-1.2-13.3-11.2-26.5-22.2-26.7-22.2-27.5-22.9-27-25.3.1-.9.6-4.8 1-8.5.3-3.7.8-7.6 1-8.5.6-3.4 1.5-9.8 2-15.2.4-3 .8-6.6 1-8 .2-1.4.7-6.1 1-10.5.4-4.4.8-9.1 1-10.5.4-2.5 1.4-14.7 2-24.5 2.3-36.4 2.3-89.1.1-122-.2-2.2-.7-9.2-1.1-15.5-.4-6.3-.8-12.2-1-13-.1-.8-.6-4.7-.9-8.5-.4-3.9-1.1-10.6-1.6-15s-1.2-10.1-1.5-12.7c-.3-2.6-.7-6.4-1-8.5-.3-2.1-.8-5.4-1-7.3-1.2-8.2-1.8-12.3-4-25.5-2.3-13.7-4.9-27.5-6-32.5-.3-1.4-.7-3.6-1-5-3.1-16.9-13.1-56.8-19.6-78.5-17.8-59-37.1-107.9-63.4-160.5-7.9-15.9-9.9-19.7-20.8-39.5-17.9-32.7-47.1-77.5-71.7-110.5-8.5-11.3-15.6-20.7-16-21-.3-.3-4.3-5.2-9-11-6.7-8.4-24.6-29.6-27-32-.3-.3-4.8-5.2-10-11-22.3-24.7-61.3-62.2-88-84.8-18.4-15.5-33-27.1-51-40.5-3.6-2.6-7.2-5.3-8-6-10.9-8.5-61-41.7-62.9-41.7-.5 0-1.1-.3-1.3-.8-.3-.7-4.1-3-24.3-14.7-24.2-14.1-67.9-36-99.5-49.9-11.3-5-21.3-9.6-22.3-10.2-1.6-.9-2.4-3.2-4.2-11.4-.2-.8-1-4.5-1.9-8.1-.8-3.7-1.7-7.8-2-9-.5-2.9-14.3-64.3-18.6-82.9-1.7-7.4-4-17.3-5-22-1-4.7-3.5-15.7-5.5-24.5s-3.9-17.3-4.2-18.9c-1.2-7-1.6-7.4-9-7.8-14-.8-639.3-.9-639.3 0zm591.9 52.7c.6.6 2.9 8.9 5.1 18.5 2.3 9.6 5.7 24.2 7.6 32.5 2 8.2 3.7 15.7 3.9 16.5.2.8 2.2 9.6 4.5 19.5s4.3 18.7 4.5 19.5c.2.8 1.1 4.6 2 8.5.9 3.8 1.8 7.9 2.1 9 1.1 5.4 8.8 38.6 10 43.2 1.6 5.9 1.2 5.7 23.9 14.6 34.2 13.4 85.2 36.8 107.5 49.4 1.9 1.1 6.2 3.5 9.5 5.3 3.3 1.8 8.9 5 12.4 7.2 3.4 2.1 6.5 3.8 6.7 3.8 1 0 34.4 21.2 49.9 31.8 25.3 17.1 63.1 45.8 80 60.7 1.7 1.4 5.5 4.7 8.5 7.3 3 2.6 7.9 6.9 10.9 9.7 3 2.7 8.2 7.5 11.5 10.5 14.3 13 45.2 44.6 60.8 62.1 1.3 1.4 3.7 4.2 5.5 6.1 2.7 3.1 30.2 36.4 33.6 40.8 17.8 22.8 47.7 66.1 59.2 85.8.6.9 4.2 7.1 8.1 13.7 14 23.6 29.7 53.5 41.1 78 7.4 15.9 20.3 46.3 20.3 47.8 0 .7.4 1.7.8 2.2 1 1.1 10.2 25.6 16 42.5 6.5 18.9 19.9 64.6 21.7 73.9.2.9.8 3.6 1.5 6.1.7 2.5 1.4 5.4 1.6 6.5.5 2.5.6 3.1 4.4 20 1.7 7.7 3.2 15.3 3.5 17 .2 1.6.9 5.5 1.5 8.5s1.3 7 1.6 8.9c.3 1.8.8 4.3 1 5.5.2 1.1.9 5.5 1.5 9.6.5 4.1 1.2 8.8 1.5 10.5.3 1.6.7 4.1.9 5.5.2 1.4.7 5 1 8 .4 3 .8 6.6 1 8 .2 1.4.6 5.4 1 9 .4 3.6.8 7.6 1 9 4.3 30.4 5.6 136.6 2.1 169.5-.5 4.3-1.7 16.3-2.1 21-.3 2.2-.7 5.6-.9 7.5-.3 1.9-.8 6-1.1 9-.4 3-.8 6.6-1 8-1.4 9-2.5 16.2-3 20.9-.4 3-.9 6.3-1.1 7.5-.2 1.2-1.4 7.6-2.5 14.3l-2.1 12.2 2.9 2.8c4 3.9 30.1 26.1 52.8 44.8 10.5 8.6 20.4 16.9 22 18.4 1.7 1.5 5.3 4.5 8 6.6 2.8 2.2 5.2 4.2 5.5 4.5.3.3 4.8 4.1 10 8.5s9.7 8.2 10 8.5c.3.3 4.3 3.7 9 7.7 13.7 11.5 13.1 9.6 6.7 20.5-3 5.1-6.4 10.9-7.5 12.8-1.1 1.9-3.6 6.4-5.7 10-2.1 3.6-4.5 7.8-5.5 9.5-.9 1.6-4.3 7.5-7.5 13s-6.6 11.4-7.5 13.1c-1 1.6-5.2 9-9.5 16.4-4.3 7.4-8.5 14.8-9.5 16.4-1 1.7-8.4 14.6-16.5 28.6-8.1 14-15.5 26.8-16.5 28.5-7.5 13.1-20.3 35.3-21 36.5-5.2 8.7-13 22.3-13 22.6 0 .3-1.1 2.1-2.4 4.2-1.3 2-8.6 14.5-16.1 27.7-7.6 13.2-17.6 30.5-22.3 38.5-4.7 8-9.4 16.1-10.5 18-1 1.9-4.5 8-7.7 13.5s-6.7 11.6-7.8 13.5c-1 1.9-10.7 18.6-21.5 37-10.7 18.4-20.3 34.9-21.3 36.7-5.2 8.9-20.7 35.3-27.6 46.9-7.4 12.4-7.9 13.1-10.5 12.6-3.5-.6-75.3-22-105.3-31.4-24.9-7.7-34-10.6-38.5-11.8-1.6-.5-7-2-12-3.5-4.9-1.5-9.8-2.9-10.7-3-1.9-.4-1.6-.6-21.3 15-12.2 9.7-25.4 19.6-46.5 35.1-8.4 6.2-23.7 16.4-24.6 16.4-.4 0-7.5 4.2-15.8 9.4-25.4 15.8-52.8 31-82.1 45.6-48.3 23.9-86.2 39.2-134 54.3-6 1.9-13.7 4.2-17 5.1-3.3 1-8.7 2.6-12 3.6-7.5 2.2-42.9 11.1-47 11.7-1.6.2-4.8.9-7 1.5-4.9 1.2-7 1.7-11.5 2.4-1.9.3-4.3.7-5.2 1-1 .3-3 .7-4.5 1-1.6.2-5 .9-7.8 1.4-2.7.5-11.1 1.9-18.5 3-7.4 1.2-14.6 2.3-16 2.5-5.1.8-9.7 1.4-15.4 2.1-3.3.3-6.7.8-7.5.9-.9.2-5.4.6-10.1 1.1-4.7.4-8.7.8-9 .9-.3.1-4.5.5-9.5.9-4.9.4-10.1.9-11.5 1.2-14 2.2-117.1 2.2-134.8-.1-1.7-.2-7.1-.7-11.8-1-4.7-.4-9.4-.8-10.5-1-1-.2-4.9-.6-8.6-1-6.8-.6-12.7-1.3-17.3-2-1.4-.2-4.9-.7-7.9-1-3-.4-6.3-.9-7.5-1.1-1.1-.2-8.4-1.3-16.1-2.4-7.7-1.2-15.6-2.5-17.5-3-1.9-.5-5.5-1.2-8-1.5-2.5-.4-8.5-1.5-13.3-2.6-4.8-1.1-10.2-2.2-12-2.4-3.2-.5-47.7-11.7-59.2-14.9-7-1.9-43.1-13.4-46-14.6-1.1-.4-6-2.2-11-4-20.7-7.5-48.7-18.9-66.3-27.1-4.6-2.1-8.6-3.9-8.8-3.9-.6 0-43.1-21.3-47.6-23.8-2.1-1.2-6.8-3.8-10.5-5.8-10.6-5.8-35.1-20.2-42.6-25-3.7-2.4-7-4.4-7.2-4.4-.3 0-9.6-6.1-20.7-13.6-21.4-14.4-50.3-35.7-63.2-46.5-1.7-1.4-5.1-4-7.6-5.7-2.5-1.7-6.1-4.5-8-6.2-11.6-10.4-11.6-10.3-16.7-9.1-4.4 1.1-33.1 11.1-37.8 13.2-1.1.5-8.1 3.1-15.5 5.8-7.4 2.7-22.9 8.3-34.5 12.6-11.5 4.2-25.7 9.4-31.5 11.5-5.8 2.1-15.7 5.7-22 8-15.9 5.8-16.7 6-17.9 4.7-.8-1-14.7-24.6-24.6-41.7-1.8-3-11.1-19.2-20.8-35.9-9.8-16.6-17.7-30.6-17.7-31 0-.4-.5-1.2-1.2-1.9-1.4-1.4-7.2-11.4-9-15.5-.7-1.5-1.6-2.7-2-2.7-.4 0-.8-.4-.8-.9s-18.6-33-41.3-72.2c-36.3-62.8-61.3-105.9-66.7-115.4-5.6-9.7-19.8-34.3-42.5-73.5-14.1-24.5-26.9-46.5-28.3-48.9-6.5-11.5-8.3-14.7-9.2-16.1-.5-.8-2-3.4-3.4-5.7l-2.4-4.3 14.1-13.4c7.8-7.3 15.8-14.8 17.7-16.6 1.9-1.8 7.1-6.6 11.5-10.9 12.4-11.8 36.5-34.3 41.9-39.2 2.7-2.4 6.4-5.8 8.1-7.4 1.7-1.7 9.6-9.1 17.5-16.5 22.2-20.8 20.3-18.7 19.5-22.3-.3-1.8-.8-3.9-.9-4.7-.2-.8-.7-4-1.2-7-.4-3-.8-5.7-.9-6-.2-1-1.7-10.6-2-13-.2-1.4-1.1-8.1-2-14.9-.9-6.8-1.8-14.6-2.1-17.5-.2-2.8-.6-6.9-.9-9.1-2.1-19.8-3.5-111.1-2.1-133 .3-3.9.8-11.7 1.1-17.5 1-16 2.4-32.7 4-45 .3-1.9.7-6 1.1-9 1.1-9.7 6.5-45.4 7.9-52.5.2-1.1.7-3.4 1-5 .6-3.4 2.3-12 2.9-15 3.9-18.7 10.7-46.2 15.6-63.5 2.3-8 4.5-15.9 5-17.5 3.8-13.5 15.6-47.7 23.2-67.5 21-54 49.1-109.8 80.2-159 9.5-15.1 33.1-49.6 39.3-57.5.5-.6 6.2-8 12.7-16.5 6.6-8.5 12.2-15.7 12.5-16 .4-.3 5.1-5.9 10.6-12.5 5.4-6.6 10.2-12.2 10.5-12.5.3-.3 5.1-5.5 10.5-11.5 15.5-17.1 40.6-42.7 54-54.9 2.2-2.1 6-5.6 8.5-7.9 16.6-15.7 52.6-45.1 74.5-61.1 6.6-4.8 12.7-9.2 13.5-9.9 2-1.6 42.3-28.3 48.6-32.2 45.7-28 98.6-54.7 142.4-71.9 5.2-2.1 10.4-4.2 11.5-4.7 1.1-.5 8.3-3.1 16-5.9 7.6-2.8 14.6-5.6 15.3-6.4 1.2-1.2 3.1-8.2 4.7-17.9.3-1.8 1.7-9.5 3.1-17.2 2.9-16.3 3-16.9 3.8-21.5.3-1.9 2.9-16.6 5.7-32.5 2.8-16 5.2-29.9 5.3-31 .2-1.1.6-3.4.9-5 .4-1.7.9-4.6 1.2-6.5.3-1.9 1-5.8 1.5-8.5.5-2.8 1.1-6.1 1.4-7.5.2-1.4 1.2-7.1 2.2-12.8l1.8-10.3 269.2.3c184.2.2 269.6.6 270.3 1.3z"/><path d="M1073 469.5V521l-2.2.1c-1.3.1-3.4.2-4.8.4-1.4.1-5.6.5-9.5.9-3.8.3-8.1.8-9.5 1.1-1.4.2-5.4.7-9 1-3.6.4-11 1.3-16.5 2.1s-11.8 1.7-14 2c-17.6 2.2-66.6 14-90.5 21.7-17.7 5.8-43.7 15.4-53.5 19.7-1.1.5-8.3 3.6-16 7-39 17.1-85.3 44-119.5 69.4-9.5 7-30.7 23.8-34.5 27.3-1.2 1-5.4 4.7-9.5 8.3-15.6 13.4-40.2 37.9-56 55.6-29.7 33.2-56.7 70.7-77.2 106.9-2.5 4.4-5.6 9.8-6.8 12-4.1 7.2-20.8 40.8-25 50.5-19.2 43.5-33.9 90.2-42.9 135.5-2.2 11-4.3 21.8-4.6 24-1.5 9.9-4.4 32.7-5 39.5-.4 4.1-.9 8.6-1 10-2.6 20.8-2.5 82.7.1 109.5 8.1 84.1 26.6 151.2 62.2 226.7 2.8 5.8 5.2 11.4 5.4 12.4.3 2-3.9 4.6-59.5 36.9-19.1 11.1-35.8 21-37.2 22.1l-2.4 1.9 2.3 4.5c4.8 9.7 31.1 55.2 35.6 62l1.6 2.3 14.4-8.3c8-4.6 16.5-9.4 19-10.8 2.5-1.4 16-9.1 30-17.2s28.4-16.3 31.9-18.3l6.4-3.5 3.1 3.8c1.7 2 4.9 6.3 7.1 9.4 11.9 17.1 32.2 41.9 48.7 59.8 62.2 67.4 133.4 118.4 217.8 155.8 54.9 24.4 117.7 41.9 177 49.5 6.9.8 13.9 1.7 15.5 2 25.7 3.5 103.8 4.2 126 1.1 1.7-.2 6.6-.7 11-1.1 4.4-.3 8.7-.8 9.5-1 .8-.2 4-.7 7-1 4.7-.5 33-5.2 42.5-7 31.1-5.9 73.9-18.4 106.4-31.1 86.3-33.8 159.9-81.4 223.2-144.4 17.8-17.8 22.2-22.4 32.9-34.6 12.7-14.4 26.4-31.8 39.4-49.9 4.4-6.1 8.8-12 9.8-13.1l1.9-2.1 35.2 20.1c45.6 26.2 50.9 29.2 58.7 33.7l6.5 3.8 2.3-2.7c2.4-2.9 24.9-41.1 32.6-55.3 2.5-4.7 4.6-9.3 4.6-10.1 0-1-13-9.1-35.2-22-59.5-34.6-63.8-37.2-63.8-38.3 0-.6 3.8-9.2 8.4-19 13.1-28.2 24-57 34-90 3.6-12 10.8-42.4 14.1-59.9 3.1-16.8 4-22.2 6-36.6.8-5.8 2.4-21 3-28.5.4-3.9.9-8.4 1.2-10 .9-5.3 1.1-80.6.3-90.5-.5-5.2-1.1-12.9-1.5-16.9-.3-4.1-.8-8.9-1-10.5-.2-1.7-.9-7.4-1.5-12.6-2.4-19.9-8.3-51.6-14-74-25.8-102.4-75.7-197.2-144.9-275-10.1-11.4-43.6-44.8-53.6-53.5-4.4-3.8-8.2-7.2-8.5-7.5-.3-.3-4.3-3.7-9-7.5s-8.7-7.2-9-7.5c-1.5-1.6-30-22.7-39.5-29.1-46.7-31.9-106.4-61.5-159.5-79.3-31.2-10.4-76.3-21.6-101-25.1-2.5-.3-5.6-.8-7-1-3.7-.6-24.7-3.3-30.5-3.9-2.7-.3-9.9-1-16-1.7-6-.6-11.2-1.5-11.5-1.9-.3-.5-.5-23.6-.5-51.4V418H1073v51.5zm0 287.5v116l-44.2.1c-24.4.1-44.6.1-45 0-.5 0-.8.4-.8 1.1 0 1 20.8 42.3 36.5 72.3 2.9 5.5 9.8 19 15.5 30 12.2 23.8 23.1 44.9 31 60 3.2 6 9.9 19.1 15 29 5.1 9.9 11.4 22 14 27 2.6 4.9 8 15.3 12 23 4 7.7 7.5 14.3 7.9 14.7.3.4 2.3-2.5 4.4-6.5 2-3.9 7.1-13.7 11.3-21.7 10.2-19.6 22.5-43.2 32.4-62.5 4.5-8.8 11.1-21.4 14.5-28 3.4-6.6 11.1-21.5 17-33 5.9-11.6 12.6-24.4 14.8-28.5 7.2-13.8 38.7-75.7 38.7-76.3 0-.3-21-.6-46.6-.7-25.7 0-47-.2-47.3-.4-.3-.2-.6-52.3-.6-115.8V641.5l5.5.1c20.5.2 80.3 11.5 108.5 20.4 52.7 16.9 100.9 40 144.5 69.3 5.8 3.9 11 7.4 11.5 7.9.6.4 8.1 6.2 16.7 12.8 17.1 13.2 26.4 21.6 46.3 41.6 26.5 26.7 40.3 42.4 53.1 60.4 2.1 3 4.1 5.7 4.4 6 .3.3 4.3 6 8.9 12.8 34.9 51.8 60.5 109.2 75.1 168.7 2.7 11 5.2 21.6 5.5 23.5.5 2.9 2.9 16.4 4 22 .2.9.6 4.3 1 7.5.4 3.3.9 6.9 1.1 8 .7 3.4 2.4 22.4 3.2 34 1.4 21.2.5 78.1-1.3 83.9-.2.6-.6 4.3-1 8.2-.3 3.9-.7 8-.9 9-.2 1.1-.7 4.6-1.1 7.9-.4 3.2-.8 6.7-1 7.6-.2.9-.6 3.4-.9 5.5-.4 2.2-.8 4.6-1.1 5.4-.2.8-.6 3.1-.9 5-2.1 14.3-11.5 49.9-18.9 71.5-8.9 26-23.7 61-25.8 61-.9 0-40.3-22.5-113.4-64.7-13.7-8-27-15.6-29.5-17-6.8-3.8-38.9-22.7-41.5-24.4l-2.4-1.5 1.8-4.2c1-2.3 9.9-18.4 19.8-35.7 21.5-37.6 21.7-38 20.6-39-.4-.5-8.4-1.1-17.8-1.5-9.3-.4-18.8-.9-21-1-2.2-.2-11.6-.6-21-1-9.3-.3-19-.8-21.5-1-2.5-.2-11.2-.7-19.5-1-8.2-.4-17.5-.8-20.5-1-5.6-.4-21.8-1.2-41.5-2-10.5-.4-24-1.1-40.5-2-4.1-.2-14.7-.7-23.5-1-8.8-.4-18.5-.9-21.5-1.1-3-.2-13.3-.7-22.9-1-14.8-.6-17.3-.5-16.6.7 1.6 2.7 19.9 31.5 25 39.4 2.9 4.4 27.7 42.9 55 85.5 74.3 115.7 74.4 115.7 76.2 116.4 1.2.5 7.7-10.2 34.8-57.2 7-12.2 13.2-22.2 13.8-22.2.5 0 3.4 1.5 6.5 3.4 5.6 3.3 67.2 38.9 76.2 43.9 2.5 1.4 10.1 5.8 17 9.9 6.9 4.1 13.2 7.7 14 8.1.8.4 3.1 1.7 5 2.8 1.9 1.2 9.4 5.5 16.5 9.7 7.2 4.1 21.7 12.6 32.3 18.9l19.2 11.4-1.6 2.9c-2.7 4.5-18.5 25.5-24.9 32.9-7 8.2-9.4 11-17.5 19.5-38 40.1-59.3 58.4-99 85-24 16-55.1 32.8-84.5 45.6-38 16.5-81.6 29-127 36.4-46 7.6-110.2 8-155 1.1-1.1-.1-4-.6-6.5-.9-14.5-2.3-41.1-7.7-52-10.6-44.1-11.9-74-23.6-115.9-45.3-31.8-16.4-70.6-42.6-96.4-64.9-24-20.9-62.8-62.4-79.8-85.3-2.4-3.3-4.6-6.2-4.9-6.5-1.1-1-4.1-6.2-3.8-6.5.5-.5 14.3-8.6 38.8-22.7 12.9-7.4 33.9-19.5 46.5-26.8 12.7-7.3 36.1-20.8 52-30 16-9.2 32.4-18.7 36.5-21.1 12.6-7.4 13-7.6 14-5.9.5.8 10.5 18.1 22.3 38.4 11.8 20.4 21.9 37.2 22.4 37.3.6.2 8.3-10.8 17-24.4 58.7-91.3 71.8-111.6 81.2-126.3 47.4-73.4 58.1-90.3 58.1-91.9 0-1.3-3.8-1.3-34.5.4-4.4.3-12.9.7-19 1-6 .3-15 .7-20 1-8.3.4-18.9.9-41.5 2-16.7.8-34.6 1.6-41 2-3.6.2-13 .6-21 1-8 .3-17.4.8-21 1-3.6.2-13.7.7-22.5 1-8.8.3-18 .8-20.5 1-2.5.2-11 .7-19 1.1-8 .4-15.6.8-17 .9-1.4.1-4.4.3-6.7.3-2.9.1-4.3.6-4.3 1.6 0 1.2 11.8 22.2 39.8 70.6 3.3 5.7 6 10.5 5.9 10.6-.4.3-70.2 40.7-89.2 51.6-14.5 8.3-88.8 50.8-98.7 56.4-1.1.7-11.4-21.4-19.7-42.4-18-45.1-30.8-101-34.6-150.2-.4-4.7-.9-10.1-1.1-12-1.2-10.8-.5-59.9 1.1-76 1.4-14 1.5-15.3 3-27 1.5-11 5.8-34.6 8.6-46.5 19.3-82.8 57.3-159.1 111.3-223.5 9.9-11.8 52.1-54.1 63.6-63.7 62.4-52.2 140.6-91.9 216.1-109.7 19-4.5 46.6-9.7 58.9-11.2 3-.4 7.8-1 10.5-1.3 2.8-.4 7.6-.7 10.8-.9l5.7-.2v116z"/></svg>